# xmcd
#
# Track frame offsets:
#        187
#        24852
#        48205
#        67037
#        85922
#        105682
#        124012
#        147830
#        166742
#        186482
#        208295
#        225775
#
# Disc length: 3218 seconds
#
# Revision: 1
# Processed by: cddbd v1.5.1PL0 Copyright (c) Steve Scherf et al.
# Submitted via: ExactAudioCopy v0.95a3
#
DISCID=9b0c900c
DTITLE=Baha Men - Funky Nassau -The Best Of Baha Men-
DYEAR=1998
DGENRE=Reggae
TTITLE0=Funky Nassau
TTITLE1=(Just A) Sunny Day
TTITLE2=Here We Go Again
TTITLE3=Beach Baby
TTITLE4=That's The Way I Get Down
TTITLE5=Love Really Hurts
TTITLE6=Love 4 Real
TTITLE7=Dancing In The Moonlight
TTITLE8=Beautiful Girl
TTITLE9=Back To The Island
TTITLE10=Island Life
TTITLE11=Living On Sunshine (28th Street Crew Radio Mix)
EXTD=ID3G: 16
EXTT0=
EXTT1=
EXTT2=
EXTT3=
EXTT4=
EXTT5=
EXTT6=
EXTT7=
EXTT8=
EXTT9=
EXTT10=
EXTT11=
PLAYORDER=
